<mxfile host="app.diagrams.net" agent="Mozilla/5.0 (Windows NT 10.0; Win64; x64) AppleWebKit/537.36 (KHTML, like Gecko) Chrome/136.0.0.0 Safari/537.36" version="27.0.6">
  <diagram name="Page-1" id="mjuVgUBo2BtPiOG4B40c">
    <mxGraphModel dx="1277" dy="636" grid="1" gridSize="10" guides="1" tooltips="1" connect="1" arrows="1" fold="1" page="1" pageScale="1" pageWidth="1654" pageHeight="1169" math="0" shadow="0">
      <root>
        <mxCell id="0" />
        <mxCell id="1" parent="0" />
        <mxCell id="pHrxGnPb1EP4JmzlT9C2-57" style="edgeStyle=orthogonalEdgeStyle;rounded=1;orthogonalLoop=1;jettySize=auto;html=1;exitX=0.5;exitY=1;exitDx=0;exitDy=0;curved=0;endArrow=none;startFill=0;" parent="1" source="pHrxGnPb1EP4JmzlT9C2-1" edge="1">
          <mxGeometry relative="1" as="geometry">
            <mxPoint x="320.27272727272725" y="320" as="targetPoint" />
          </mxGeometry>
        </mxCell>
        <mxCell id="pHrxGnPb1EP4JmzlT9C2-1" value="caretakers" style="whiteSpace=wrap;html=1;align=center;fontSize=16;" parent="1" vertex="1">
          <mxGeometry x="270" y="250" width="100" height="40" as="geometry" />
        </mxCell>
        <mxCell id="pHrxGnPb1EP4JmzlT9C2-5" value="" style="edgeStyle=orthogonalEdgeStyle;rounded=0;orthogonalLoop=1;jettySize=auto;html=1;endArrow=none;endFill=1;endSize=10;startSize=10;startFill=0;" parent="1" source="pHrxGnPb1EP4JmzlT9C2-2" target="pHrxGnPb1EP4JmzlT9C2-3" edge="1">
          <mxGeometry relative="1" as="geometry" />
        </mxCell>
        <mxCell id="pHrxGnPb1EP4JmzlT9C2-2" value="owns" style="shape=rhombus;perimeter=rhombusPerimeter;whiteSpace=wrap;html=1;align=center;fontSize=16;" parent="1" vertex="1">
          <mxGeometry x="420" y="240" width="120" height="60" as="geometry" />
        </mxCell>
        <mxCell id="pHrxGnPb1EP4JmzlT9C2-15" value="" style="edgeStyle=orthogonalEdgeStyle;rounded=1;orthogonalLoop=1;jettySize=auto;html=1;endArrow=none;startFill=0;curved=0;" parent="1" source="pHrxGnPb1EP4JmzlT9C2-3" target="pHrxGnPb1EP4JmzlT9C2-13" edge="1">
          <mxGeometry relative="1" as="geometry" />
        </mxCell>
        <mxCell id="pHrxGnPb1EP4JmzlT9C2-43" style="edgeStyle=orthogonalEdgeStyle;rounded=1;orthogonalLoop=1;jettySize=auto;html=1;exitX=1;exitY=0.5;exitDx=0;exitDy=0;entryX=0;entryY=0.5;entryDx=0;entryDy=0;curved=0;endArrow=none;startFill=0;" parent="1" source="pHrxGnPb1EP4JmzlT9C2-3" target="pHrxGnPb1EP4JmzlT9C2-42" edge="1">
          <mxGeometry relative="1" as="geometry" />
        </mxCell>
        <mxCell id="pHrxGnPb1EP4JmzlT9C2-69" style="edgeStyle=orthogonalEdgeStyle;rounded=1;orthogonalLoop=1;jettySize=auto;html=1;exitX=0.25;exitY=1;exitDx=0;exitDy=0;entryX=0.5;entryY=0;entryDx=0;entryDy=0;curved=0;endArrow=none;startFill=0;" parent="1" source="pHrxGnPb1EP4JmzlT9C2-3" target="pHrxGnPb1EP4JmzlT9C2-18" edge="1">
          <mxGeometry relative="1" as="geometry" />
        </mxCell>
        <mxCell id="pHrxGnPb1EP4JmzlT9C2-71" style="edgeStyle=orthogonalEdgeStyle;rounded=1;orthogonalLoop=1;jettySize=auto;html=1;exitX=1;exitY=1;exitDx=0;exitDy=0;entryX=0.5;entryY=0;entryDx=0;entryDy=0;curved=0;endArrow=none;startFill=0;" parent="1" source="pHrxGnPb1EP4JmzlT9C2-3" target="pHrxGnPb1EP4JmzlT9C2-60" edge="1">
          <mxGeometry relative="1" as="geometry">
            <Array as="points">
              <mxPoint x="670" y="300" />
              <mxPoint x="870" y="300" />
            </Array>
          </mxGeometry>
        </mxCell>
        <mxCell id="pHrxGnPb1EP4JmzlT9C2-73" style="edgeStyle=orthogonalEdgeStyle;rounded=1;orthogonalLoop=1;jettySize=auto;html=1;exitX=0.75;exitY=0;exitDx=0;exitDy=0;entryX=0;entryY=0.5;entryDx=0;entryDy=0;curved=0;endArrow=none;startFill=0;" parent="1" source="pHrxGnPb1EP4JmzlT9C2-3" target="pHrxGnPb1EP4JmzlT9C2-36" edge="1">
          <mxGeometry relative="1" as="geometry">
            <Array as="points">
              <mxPoint x="645" y="240" />
              <mxPoint x="890" y="240" />
            </Array>
          </mxGeometry>
        </mxCell>
        <mxCell id="pHrxGnPb1EP4JmzlT9C2-3" value="pets" style="whiteSpace=wrap;html=1;align=center;fontSize=16;" parent="1" vertex="1">
          <mxGeometry x="570" y="250" width="100" height="40" as="geometry" />
        </mxCell>
        <mxCell id="pHrxGnPb1EP4JmzlT9C2-9" value="" style="edgeStyle=orthogonalEdgeStyle;rounded=0;orthogonalLoop=1;jettySize=auto;html=1;endArrow=none;startFill=0;curved=1;" parent="1" source="pHrxGnPb1EP4JmzlT9C2-6" target="pHrxGnPb1EP4JmzlT9C2-1" edge="1">
          <mxGeometry relative="1" as="geometry" />
        </mxCell>
        <mxCell id="pHrxGnPb1EP4JmzlT9C2-6" value="name" style="ellipse;whiteSpace=wrap;html=1;align=center;" parent="1" vertex="1">
          <mxGeometry x="220" y="170" width="70" height="30" as="geometry" />
        </mxCell>
        <mxCell id="pHrxGnPb1EP4JmzlT9C2-8" style="edgeStyle=orthogonalEdgeStyle;rounded=0;orthogonalLoop=1;jettySize=auto;html=1;exitX=0.5;exitY=1;exitDx=0;exitDy=0;entryX=0;entryY=0;entryDx=0;entryDy=0;endArrow=none;startFill=0;curved=1;" parent="1" source="pHrxGnPb1EP4JmzlT9C2-7" target="pHrxGnPb1EP4JmzlT9C2-1" edge="1">
          <mxGeometry relative="1" as="geometry" />
        </mxCell>
        <mxCell id="pHrxGnPb1EP4JmzlT9C2-7" value="&lt;u&gt;id&lt;/u&gt;" style="ellipse;whiteSpace=wrap;html=1;align=center;" parent="1" vertex="1">
          <mxGeometry x="140" y="180" width="70" height="30" as="geometry" />
        </mxCell>
        <mxCell id="pHrxGnPb1EP4JmzlT9C2-10" value="species" style="whiteSpace=wrap;html=1;align=center;fontSize=16;" parent="1" vertex="1">
          <mxGeometry x="760" y="100" width="100" height="40" as="geometry" />
        </mxCell>
        <mxCell id="pHrxGnPb1EP4JmzlT9C2-12" value="" style="edgeStyle=orthogonalEdgeStyle;rounded=1;orthogonalLoop=1;jettySize=auto;html=1;curved=0;endArrow=none;startFill=0;" parent="1" source="pHrxGnPb1EP4JmzlT9C2-11" target="pHrxGnPb1EP4JmzlT9C2-10" edge="1">
          <mxGeometry relative="1" as="geometry" />
        </mxCell>
        <mxCell id="pHrxGnPb1EP4JmzlT9C2-11" value="name" style="ellipse;whiteSpace=wrap;html=1;align=center;" parent="1" vertex="1">
          <mxGeometry x="930" y="105" width="70" height="30" as="geometry" />
        </mxCell>
        <mxCell id="pHrxGnPb1EP4JmzlT9C2-14" value="" style="edgeStyle=orthogonalEdgeStyle;rounded=0;orthogonalLoop=1;jettySize=auto;html=1;endArrow=block;startFill=0;endFill=1;entryX=0.5;entryY=1;entryDx=0;entryDy=0;" parent="1" target="pHrxGnPb1EP4JmzlT9C2-10" edge="1">
          <mxGeometry relative="1" as="geometry">
            <mxPoint x="730" y="170" as="sourcePoint" />
            <mxPoint x="810" y="160" as="targetPoint" />
          </mxGeometry>
        </mxCell>
        <mxCell id="pHrxGnPb1EP4JmzlT9C2-13" value="has" style="shape=rhombus;perimeter=rhombusPerimeter;whiteSpace=wrap;html=1;align=center;fontSize=16;" parent="1" vertex="1">
          <mxGeometry x="670" y="150" width="120" height="60" as="geometry" />
        </mxCell>
        <mxCell id="pHrxGnPb1EP4JmzlT9C2-17" value="" style="edgeStyle=orthogonalEdgeStyle;rounded=0;orthogonalLoop=1;jettySize=auto;html=1;endArrow=none;startFill=0;" parent="1" source="pHrxGnPb1EP4JmzlT9C2-16" target="pHrxGnPb1EP4JmzlT9C2-10" edge="1">
          <mxGeometry relative="1" as="geometry" />
        </mxCell>
        <mxCell id="pHrxGnPb1EP4JmzlT9C2-16" value="&lt;u&gt;id&lt;/u&gt;" style="ellipse;whiteSpace=wrap;html=1;align=center;" parent="1" vertex="1">
          <mxGeometry x="630" y="105" width="70" height="30" as="geometry" />
        </mxCell>
        <mxCell id="pHrxGnPb1EP4JmzlT9C2-18" value="name" style="ellipse;whiteSpace=wrap;html=1;align=center;" parent="1" vertex="1">
          <mxGeometry x="550" y="370" width="70" height="30" as="geometry" />
        </mxCell>
        <mxCell id="pHrxGnPb1EP4JmzlT9C2-20" value="&lt;u&gt;id&lt;/u&gt;" style="ellipse;whiteSpace=wrap;html=1;align=center;" parent="1" vertex="1">
          <mxGeometry x="470" y="370" width="70" height="30" as="geometry" />
        </mxCell>
        <mxCell id="pHrxGnPb1EP4JmzlT9C2-21" style="edgeStyle=orthogonalEdgeStyle;rounded=1;orthogonalLoop=1;jettySize=auto;html=1;exitX=0.5;exitY=0;exitDx=0;exitDy=0;curved=0;endArrow=none;startFill=0;entryX=0.121;entryY=1.024;entryDx=0;entryDy=0;entryPerimeter=0;" parent="1" source="pHrxGnPb1EP4JmzlT9C2-20" target="pHrxGnPb1EP4JmzlT9C2-3" edge="1">
          <mxGeometry relative="1" as="geometry">
            <mxPoint x="582" y="310" as="targetPoint" />
          </mxGeometry>
        </mxCell>
        <mxCell id="pHrxGnPb1EP4JmzlT9C2-25" style="edgeStyle=orthogonalEdgeStyle;rounded=1;orthogonalLoop=1;jettySize=auto;html=1;exitX=0.5;exitY=0;exitDx=0;exitDy=0;entryX=0.75;entryY=1;entryDx=0;entryDy=0;endArrow=none;startFill=0;curved=0;" parent="1" source="pHrxGnPb1EP4JmzlT9C2-22" target="pHrxGnPb1EP4JmzlT9C2-3" edge="1">
          <mxGeometry relative="1" as="geometry" />
        </mxCell>
        <mxCell id="pHrxGnPb1EP4JmzlT9C2-22" value="description" style="ellipse;whiteSpace=wrap;html=1;align=center;" parent="1" vertex="1">
          <mxGeometry x="630" y="370" width="70" height="30" as="geometry" />
        </mxCell>
        <mxCell id="pHrxGnPb1EP4JmzlT9C2-40" style="edgeStyle=orthogonalEdgeStyle;rounded=1;orthogonalLoop=1;jettySize=auto;html=1;exitX=0.5;exitY=0;exitDx=0;exitDy=0;entryX=0;entryY=0.75;entryDx=0;entryDy=0;curved=0;endArrow=none;startFill=0;" parent="1" source="pHrxGnPb1EP4JmzlT9C2-26" target="pHrxGnPb1EP4JmzlT9C2-3" edge="1">
          <mxGeometry relative="1" as="geometry">
            <Array as="points">
              <mxPoint x="425" y="310" />
              <mxPoint x="570" y="310" />
            </Array>
          </mxGeometry>
        </mxCell>
        <mxCell id="pHrxGnPb1EP4JmzlT9C2-26" value="image_url" style="ellipse;whiteSpace=wrap;html=1;align=center;" parent="1" vertex="1">
          <mxGeometry x="390" y="370" width="70" height="30" as="geometry" />
        </mxCell>
        <mxCell id="pHrxGnPb1EP4JmzlT9C2-34" value="gender" style="whiteSpace=wrap;html=1;align=center;fontSize=16;" parent="1" vertex="1">
          <mxGeometry x="1060" y="290" width="100" height="40" as="geometry" />
        </mxCell>
        <mxCell id="pHrxGnPb1EP4JmzlT9C2-41" style="edgeStyle=orthogonalEdgeStyle;rounded=1;orthogonalLoop=1;jettySize=auto;html=1;exitX=1;exitY=0.5;exitDx=0;exitDy=0;entryX=1;entryY=0;entryDx=0;entryDy=0;curved=0;endArrow=none;startFill=0;" parent="1" source="pHrxGnPb1EP4JmzlT9C2-36" target="pHrxGnPb1EP4JmzlT9C2-34" edge="1">
          <mxGeometry relative="1" as="geometry" />
        </mxCell>
        <mxCell id="pHrxGnPb1EP4JmzlT9C2-36" value="gender_pref" style="shape=rhombus;perimeter=rhombusPerimeter;whiteSpace=wrap;html=1;align=center;fontSize=16;" parent="1" vertex="1">
          <mxGeometry x="890" y="150" width="120" height="60" as="geometry" />
        </mxCell>
        <mxCell id="pHrxGnPb1EP4JmzlT9C2-70" style="edgeStyle=orthogonalEdgeStyle;rounded=0;orthogonalLoop=1;jettySize=auto;html=1;exitX=1;exitY=0.5;exitDx=0;exitDy=0;entryX=0;entryY=0.5;entryDx=0;entryDy=0;endArrow=block;endFill=1;" parent="1" source="pHrxGnPb1EP4JmzlT9C2-42" target="pHrxGnPb1EP4JmzlT9C2-34" edge="1">
          <mxGeometry relative="1" as="geometry" />
        </mxCell>
        <mxCell id="pHrxGnPb1EP4JmzlT9C2-42" value="has" style="shape=rhombus;perimeter=rhombusPerimeter;whiteSpace=wrap;html=1;align=center;fontSize=16;" parent="1" vertex="1">
          <mxGeometry x="870" y="240" width="120" height="60" as="geometry" />
        </mxCell>
        <mxCell id="pHrxGnPb1EP4JmzlT9C2-46" value="areas" style="whiteSpace=wrap;html=1;align=center;fontSize=16;" parent="1" vertex="1">
          <mxGeometry x="200" y="460" width="100" height="40" as="geometry" />
        </mxCell>
        <mxCell id="pHrxGnPb1EP4JmzlT9C2-54" style="edgeStyle=orthogonalEdgeStyle;rounded=1;orthogonalLoop=1;jettySize=auto;html=1;exitX=0.5;exitY=0;exitDx=0;exitDy=0;entryX=0;entryY=0.5;entryDx=0;entryDy=0;curved=0;endArrow=none;startFill=0;" parent="1" source="pHrxGnPb1EP4JmzlT9C2-50" target="pHrxGnPb1EP4JmzlT9C2-1" edge="1">
          <mxGeometry relative="1" as="geometry" />
        </mxCell>
        <mxCell id="pHrxGnPb1EP4JmzlT9C2-50" value="lives_at" style="shape=rhombus;perimeter=rhombusPerimeter;whiteSpace=wrap;html=1;align=center;fontSize=16;" parent="1" vertex="1">
          <mxGeometry x="100" y="320" width="120" height="60" as="geometry" />
        </mxCell>
        <mxCell id="pHrxGnPb1EP4JmzlT9C2-53" style="edgeStyle=orthogonalEdgeStyle;rounded=1;orthogonalLoop=1;jettySize=auto;html=1;exitX=0.5;exitY=0;exitDx=0;exitDy=0;entryX=0.5;entryY=1;entryDx=0;entryDy=0;strokeColor=none;curved=0;endArrow=none;startFill=0;" parent="1" source="pHrxGnPb1EP4JmzlT9C2-51" target="pHrxGnPb1EP4JmzlT9C2-1" edge="1">
          <mxGeometry relative="1" as="geometry" />
        </mxCell>
        <mxCell id="pHrxGnPb1EP4JmzlT9C2-56" style="edgeStyle=orthogonalEdgeStyle;rounded=1;orthogonalLoop=1;jettySize=auto;html=1;exitX=0.5;exitY=1;exitDx=0;exitDy=0;entryX=0.75;entryY=0;entryDx=0;entryDy=0;curved=0;endArrow=none;startFill=0;" parent="1" source="pHrxGnPb1EP4JmzlT9C2-51" target="pHrxGnPb1EP4JmzlT9C2-46" edge="1">
          <mxGeometry relative="1" as="geometry" />
        </mxCell>
        <mxCell id="pHrxGnPb1EP4JmzlT9C2-51" value="area_pref" style="shape=rhombus;perimeter=rhombusPerimeter;whiteSpace=wrap;html=1;align=center;fontSize=16;" parent="1" vertex="1">
          <mxGeometry x="260" y="320" width="120" height="60" as="geometry" />
        </mxCell>
        <mxCell id="pHrxGnPb1EP4JmzlT9C2-55" style="edgeStyle=orthogonalEdgeStyle;rounded=1;orthogonalLoop=1;jettySize=auto;html=1;exitX=0.5;exitY=1;exitDx=0;exitDy=0;entryX=0.18;entryY=0.068;entryDx=0;entryDy=0;entryPerimeter=0;curved=0;endArrow=block;startFill=0;endFill=1;" parent="1" source="pHrxGnPb1EP4JmzlT9C2-50" target="pHrxGnPb1EP4JmzlT9C2-46" edge="1">
          <mxGeometry relative="1" as="geometry" />
        </mxCell>
        <mxCell id="pHrxGnPb1EP4JmzlT9C2-59" value="age_range" style="whiteSpace=wrap;html=1;align=center;fontSize=16;" parent="1" vertex="1">
          <mxGeometry x="820" y="420" width="100" height="40" as="geometry" />
        </mxCell>
        <mxCell id="pHrxGnPb1EP4JmzlT9C2-80" style="edgeStyle=orthogonalEdgeStyle;rounded=1;orthogonalLoop=1;jettySize=auto;html=1;exitX=0.5;exitY=1;exitDx=0;exitDy=0;entryX=0.5;entryY=0;entryDx=0;entryDy=0;curved=0;endArrow=none;startFill=0;" parent="1" source="pHrxGnPb1EP4JmzlT9C2-60" target="pHrxGnPb1EP4JmzlT9C2-59" edge="1">
          <mxGeometry relative="1" as="geometry" />
        </mxCell>
        <mxCell id="pHrxGnPb1EP4JmzlT9C2-60" value="age_pref" style="shape=rhombus;perimeter=rhombusPerimeter;whiteSpace=wrap;html=1;align=center;fontSize=16;" parent="1" vertex="1">
          <mxGeometry x="810" y="330" width="120" height="60" as="geometry" />
        </mxCell>
        <mxCell id="pHrxGnPb1EP4JmzlT9C2-78" value="age" style="ellipse;whiteSpace=wrap;html=1;align=center;" parent="1" vertex="1">
          <mxGeometry x="710" y="370" width="70" height="30" as="geometry" />
        </mxCell>
        <mxCell id="pHrxGnPb1EP4JmzlT9C2-79" style="edgeStyle=orthogonalEdgeStyle;rounded=1;orthogonalLoop=1;jettySize=auto;html=1;exitX=0.5;exitY=0;exitDx=0;exitDy=0;entryX=0.905;entryY=1.072;entryDx=0;entryDy=0;entryPerimeter=0;curved=0;endArrow=none;startFill=0;" parent="1" source="pHrxGnPb1EP4JmzlT9C2-78" target="pHrxGnPb1EP4JmzlT9C2-3" edge="1">
          <mxGeometry relative="1" as="geometry">
            <Array as="points">
              <mxPoint x="745" y="320" />
              <mxPoint x="661" y="320" />
            </Array>
          </mxGeometry>
        </mxCell>
        <mxCell id="pHrxGnPb1EP4JmzlT9C2-85" style="edgeStyle=orthogonalEdgeStyle;rounded=0;orthogonalLoop=1;jettySize=auto;html=1;exitX=1;exitY=0.5;exitDx=0;exitDy=0;endArrow=none;startFill=0;curved=1;" parent="1" source="pHrxGnPb1EP4JmzlT9C2-83" target="pHrxGnPb1EP4JmzlT9C2-59" edge="1">
          <mxGeometry relative="1" as="geometry" />
        </mxCell>
        <mxCell id="pHrxGnPb1EP4JmzlT9C2-83" value="age_from" style="ellipse;whiteSpace=wrap;html=1;align=center;" parent="1" vertex="1">
          <mxGeometry x="720" y="425" width="70" height="30" as="geometry" />
        </mxCell>
        <mxCell id="pHrxGnPb1EP4JmzlT9C2-86" value="" style="edgeStyle=orthogonalEdgeStyle;rounded=1;orthogonalLoop=1;jettySize=auto;html=1;curved=0;endArrow=none;startFill=0;" parent="1" source="pHrxGnPb1EP4JmzlT9C2-84" target="pHrxGnPb1EP4JmzlT9C2-59" edge="1">
          <mxGeometry relative="1" as="geometry" />
        </mxCell>
        <mxCell id="pHrxGnPb1EP4JmzlT9C2-84" value="age_to" style="ellipse;whiteSpace=wrap;html=1;align=center;" parent="1" vertex="1">
          <mxGeometry x="950" y="425" width="70" height="30" as="geometry" />
        </mxCell>
        <mxCell id="pHrxGnPb1EP4JmzlT9C2-89" style="edgeStyle=orthogonalEdgeStyle;rounded=1;orthogonalLoop=1;jettySize=auto;html=1;exitX=1;exitY=0.5;exitDx=0;exitDy=0;entryX=0.5;entryY=0;entryDx=0;entryDy=0;curved=0;endArrow=none;startFill=0;" parent="1" source="pHrxGnPb1EP4JmzlT9C2-87" target="pHrxGnPb1EP4JmzlT9C2-10" edge="1">
          <mxGeometry relative="1" as="geometry" />
        </mxCell>
        <mxCell id="pHrxGnPb1EP4JmzlT9C2-87" value="species_pref" style="shape=rhombus;perimeter=rhombusPerimeter;whiteSpace=wrap;html=1;align=center;fontSize=16;" parent="1" vertex="1">
          <mxGeometry x="630" y="20" width="120" height="60" as="geometry" />
        </mxCell>
        <mxCell id="pHrxGnPb1EP4JmzlT9C2-88" style="edgeStyle=orthogonalEdgeStyle;rounded=1;orthogonalLoop=1;jettySize=auto;html=1;exitX=0;exitY=0.5;exitDx=0;exitDy=0;entryX=0.375;entryY=-0.015;entryDx=0;entryDy=0;entryPerimeter=0;curved=0;endArrow=none;startFill=0;" parent="1" source="pHrxGnPb1EP4JmzlT9C2-87" target="pHrxGnPb1EP4JmzlT9C2-3" edge="1">
          <mxGeometry relative="1" as="geometry" />
        </mxCell>
        <mxCell id="xgoeEg-AZs0U8PCOE_Mt-1" value="password" style="ellipse;whiteSpace=wrap;html=1;align=center;" vertex="1" parent="1">
          <mxGeometry x="350" y="180" width="70" height="30" as="geometry" />
        </mxCell>
        <mxCell id="xgoeEg-AZs0U8PCOE_Mt-4" value="" style="endArrow=none;html=1;rounded=0;entryX=0.5;entryY=1;entryDx=0;entryDy=0;edgeStyle=orthogonalEdgeStyle;curved=1;" edge="1" parent="1" target="xgoeEg-AZs0U8PCOE_Mt-1">
          <mxGeometry width="50" height="50" relative="1" as="geometry">
            <mxPoint x="360" y="250" as="sourcePoint" />
            <mxPoint x="410" y="200" as="targetPoint" />
          </mxGeometry>
        </mxCell>
        <mxCell id="xgoeEg-AZs0U8PCOE_Mt-6" value="&lt;u&gt;id&lt;/u&gt;" style="ellipse;whiteSpace=wrap;html=1;align=center;" vertex="1" parent="1">
          <mxGeometry x="1020" y="370" width="70" height="30" as="geometry" />
        </mxCell>
        <mxCell id="xgoeEg-AZs0U8PCOE_Mt-7" value="" style="endArrow=none;html=1;rounded=0;exitX=0.5;exitY=0;exitDx=0;exitDy=0;edgeStyle=orthogonalEdgeStyle;curved=1;" edge="1" parent="1" source="xgoeEg-AZs0U8PCOE_Mt-6">
          <mxGeometry width="50" height="50" relative="1" as="geometry">
            <mxPoint x="1070" y="380" as="sourcePoint" />
            <mxPoint x="1120" y="330" as="targetPoint" />
          </mxGeometry>
        </mxCell>
        <mxCell id="xgoeEg-AZs0U8PCOE_Mt-8" value="&lt;u&gt;id&lt;/u&gt;" style="ellipse;whiteSpace=wrap;html=1;align=center;" vertex="1" parent="1">
          <mxGeometry x="290" y="540" width="70" height="30" as="geometry" />
        </mxCell>
        <mxCell id="xgoeEg-AZs0U8PCOE_Mt-9" value="" style="endArrow=none;html=1;rounded=0;exitX=0.5;exitY=0;exitDx=0;exitDy=0;edgeStyle=orthogonalEdgeStyle;curved=1;" edge="1" parent="1" source="xgoeEg-AZs0U8PCOE_Mt-8">
          <mxGeometry width="50" height="50" relative="1" as="geometry">
            <mxPoint x="200" y="550" as="sourcePoint" />
            <mxPoint x="250" y="500" as="targetPoint" />
          </mxGeometry>
        </mxCell>
        <mxCell id="xgoeEg-AZs0U8PCOE_Mt-10" value="username" style="ellipse;whiteSpace=wrap;html=1;align=center;" vertex="1" parent="1">
          <mxGeometry x="290" y="150" width="70" height="30" as="geometry" />
        </mxCell>
        <mxCell id="xgoeEg-AZs0U8PCOE_Mt-11" value="" style="endArrow=none;html=1;rounded=0;exitX=0.75;exitY=0;exitDx=0;exitDy=0;edgeStyle=orthogonalEdgeStyle;curved=1;" edge="1" parent="1" source="pHrxGnPb1EP4JmzlT9C2-1">
          <mxGeometry width="50" height="50" relative="1" as="geometry">
            <mxPoint x="270" y="230" as="sourcePoint" />
            <mxPoint x="320" y="180" as="targetPoint" />
          </mxGeometry>
        </mxCell>
        <mxCell id="xgoeEg-AZs0U8PCOE_Mt-13" value="name" style="ellipse;whiteSpace=wrap;html=1;align=center;" vertex="1" parent="1">
          <mxGeometry x="1130" y="380" width="70" height="30" as="geometry" />
        </mxCell>
        <mxCell id="xgoeEg-AZs0U8PCOE_Mt-14" value="" style="endArrow=none;html=1;rounded=0;entryX=0.75;entryY=1;entryDx=0;entryDy=0;exitX=0.5;exitY=0;exitDx=0;exitDy=0;edgeStyle=orthogonalEdgeStyle;curved=1;" edge="1" parent="1" source="xgoeEg-AZs0U8PCOE_Mt-13" target="pHrxGnPb1EP4JmzlT9C2-34">
          <mxGeometry width="50" height="50" relative="1" as="geometry">
            <mxPoint x="1030" y="360" as="sourcePoint" />
            <mxPoint x="1080" y="310" as="targetPoint" />
          </mxGeometry>
        </mxCell>
        <mxCell id="xgoeEg-AZs0U8PCOE_Mt-15" value="name" style="ellipse;whiteSpace=wrap;html=1;align=center;" vertex="1" parent="1">
          <mxGeometry x="160" y="540" width="70" height="30" as="geometry" />
        </mxCell>
        <mxCell id="xgoeEg-AZs0U8PCOE_Mt-16" value="" style="endArrow=none;html=1;rounded=0;entryX=0.385;entryY=0.991;entryDx=0;entryDy=0;entryPerimeter=0;edgeStyle=orthogonalEdgeStyle;curved=1;" edge="1" parent="1" target="pHrxGnPb1EP4JmzlT9C2-46">
          <mxGeometry width="50" height="50" relative="1" as="geometry">
            <mxPoint x="190" y="540" as="sourcePoint" />
            <mxPoint x="240" y="490" as="targetPoint" />
          </mxGeometry>
        </mxCell>
        <mxCell id="xgoeEg-AZs0U8PCOE_Mt-17" value="" style="endArrow=none;html=1;rounded=0;entryX=0;entryY=0.5;entryDx=0;entryDy=0;" edge="1" parent="1" target="pHrxGnPb1EP4JmzlT9C2-2">
          <mxGeometry width="50" height="50" relative="1" as="geometry">
            <mxPoint x="370" y="270" as="sourcePoint" />
            <mxPoint x="420" y="220" as="targetPoint" />
          </mxGeometry>
        </mxCell>
      </root>
    </mxGraphModel>
  </diagram>
</mxfile>
